# Blender v2.79 (sub 0) OBJ File: ''
# www.blender.org
mtllib pillar.mtl
o Cube.lowpoly_Cube.001
v -0.443979 3.563548 0.965135
v -0.989579 1.862033 -0.021036
v 0.964522 2.120815 0.822055
v -0.971466 2.409339 -0.977615
v 0.991239 5.628392 -0.985338
v -0.991779 6.609059 -0.998644
v 0.040512 5.841156 -1.008383
v -1.029100 5.268425 -0.752732
v 1.013006 5.068975 0.571421
v 1.027166 3.710564 -0.731043
v 0.449056 4.035489 -1.003137
v 0.550999 5.538044 -1.029255
v -0.510005 0.195245 -0.994896
v -0.999738 6.142637 0.706910
v -0.607968 5.490849 -1.017321
v -0.557828 4.698182 -1.061927
v -0.993923 1.139616 -0.996466
v -1.011116 5.821323 -0.668884
v -0.898716 0.198603 0.562755
v -0.270067 5.909408 -1.027425
v 1.003850 2.104631 0.394812
v -0.870152 0.195071 -0.433289
v -0.842486 0.194859 -0.847986
v 0.260985 5.619016 -1.060713
v -0.981802 0.703699 0.701673
v -0.997208 0.196554 1.004663
v -0.917018 7.230804 -0.182486
v -0.920754 2.098505 0.791734
v -0.972129 7.287145 -0.711051
v 1.016745 3.816411 -1.020175
v -1.016745 3.816411 -1.020175
v -0.672697 4.702876 0.974107
v 0.000000 3.719301 -1.069871
v -0.991925 3.874050 0.481178
v 1.002416 2.933649 -0.554188
v -0.117495 3.543017 0.987451
v -0.013076 2.718493 -1.002976
v 0.974534 2.445601 -0.975565
v -0.919251 7.147428 -0.952329
v 1.019453 5.712901 -0.731184
v 0.965093 5.041740 0.988929
v -0.847983 2.773325 0.713986
v 1.002070 3.869519 0.897451
v -1.002219 1.610285 0.959271
v 0.998187 3.531988 0.393727
v 0.860620 3.014602 0.993207
v 0.956177 2.978626 -0.086379
v 0.931108 3.641571 0.281885
v 1.002066 3.474356 -0.031602
v 0.926593 4.633609 0.045560
v 0.920205 3.360886 0.147747
v 0.565306 2.746988 0.999494
v 0.728298 2.071643 0.999305
v 0.958622 2.592508 0.488010
v -0.446335 7.281139 -0.991862
v -0.944600 4.668480 0.851914
v -0.948240 4.209369 0.754373
v -0.625424 5.885628 0.999768
v -0.879681 5.115033 0.909254
v -0.411036 5.025038 0.999406
v -0.951148 5.997926 0.981948
v -0.826462 3.745495 0.754834
v -0.558372 2.532416 0.937433
v 0.977398 0.936298 0.723303
v 0.838461 1.117028 0.982103
v 0.926056 1.819321 0.914463
v -0.997151 2.437533 0.487363
v 0.987546 0.198139 0.996642
v 0.946674 2.738552 0.864735
v 0.437043 7.302363 0.976251
v 0.986897 1.426382 0.127266
v -0.982907 0.618200 -0.499573
v -0.977616 5.786310 0.978093
v 0.986988 0.197051 -0.987932
v 0.545779 4.682477 -1.064891
v 1.000424 0.195058 0.371816
v -0.429541 4.043568 -1.003104
v 0.997283 6.583973 0.984227
v 0.964751 7.284992 0.921152
v 0.970908 5.238901 0.823669
v 0.880453 7.284503 0.500412
v 0.975393 6.968283 0.907949
v 0.991980 4.989802 -0.080835
v 1.001466 6.971163 -0.510869
v 0.878465 7.199076 -0.184660
v 0.483510 7.315132 -0.998717
v -0.987052 7.266773 0.978220
v 0.753733 7.311050 -0.345136
v 0.968480 7.255977 -0.941528
v -0.987998 7.283222 0.562430
v 0.978253 6.843178 -0.985070
v -0.997142 5.259581 0.636224
v -1.006031 3.036176 -0.645855
v -0.919588 5.480910 0.953500
v 0.036860 4.553725 -0.999777
v -0.654565 7.322605 0.070764
v -0.998073 6.907820 -0.674497
v -0.825495 0.676288 -0.960881
vt 0.674748 0.347069
vt 0.657333 0.247545
vt 0.671930 0.272900
vt 0.063488 0.547724
vt 0.064968 0.450776
vt 0.124725 0.427268
vt 0.928288 0.146671
vt 0.911207 0.271116
vt 0.814236 0.076352
vt 0.186808 0.619873
vt 0.153620 0.326756
vt 0.902747 0.618848
vt 0.836848 0.510677
vt 0.937693 0.564038
vt 0.127979 0.287149
vt 0.159765 0.277383
vt 0.661804 0.076466
vt 0.670331 0.115124
vt 0.599886 0.076352
vt 0.822320 0.272713
vt 0.841108 0.254611
vt 0.823710 0.346982
vt 0.093558 0.619873
vt 0.564371 0.771969
vt 0.688030 0.770652
vt 0.682021 0.804427
vt 0.568983 0.607248
vt 0.586002 0.589024
vt 0.583884 0.617947
vt 0.409503 0.078943
vt 0.434544 0.103414
vt 0.346153 0.102686
vt 0.401279 0.474503
vt 0.433757 0.496340
vt 0.421497 0.563760
vt 0.319503 0.080718
vt 0.357203 0.076352
vt 0.366839 0.085191
vt 0.438297 0.620229
vt 0.399366 0.620243
vt 0.384494 0.526137
vt 0.186169 0.080899
vt 0.186792 0.112429
vt 0.156024 0.076352
vt 0.332069 0.198675
vt 0.375090 0.369783
vt 0.342419 0.410850
vt 0.091011 0.276080
vt 0.062306 0.343351
vt 0.929536 0.291551
vt 0.850261 0.444986
vt 0.868615 0.331843
vt 0.935843 0.446306
vt 0.430844 0.426195
vt 0.407323 0.437217
vt 0.316299 0.204974
vt 0.331544 0.351526
vt 0.686508 0.184309
vt 0.153849 0.923648
vt 0.083152 0.841892
vt 0.151052 0.772851
vt 0.125693 0.350873
vt 0.128319 0.188854
vt 0.108997 0.183619
vt 0.098087 0.078859
vt 0.564696 0.148762
vt 0.586905 0.293486
vt 0.566213 0.245648
vt 0.186199 0.448188
vt 0.062337 0.772577
vt 0.098887 0.326057
vt 0.563749 0.819680
vt 0.658254 0.923494
vt 0.063218 0.901558
vt 0.160119 0.212050
vt 0.142093 0.205849
vt 0.313599 0.343314
vt 0.187505 0.205181
vt 0.657281 0.357196
vt 0.667224 0.462939
vt 0.586075 0.506105
vt 0.580683 0.463944
vt 0.565778 0.566274
vt 0.563749 0.353138
vt 0.625582 0.203705
vt 0.595539 0.108842
vt 0.316135 0.447886
vt 0.937694 0.076546
vt 0.688983 0.616075
vt 0.671812 0.530338
vt 0.689035 0.519160
vt 0.316661 0.112227
vt 0.814155 0.616074
vt 0.372440 0.254073
vt 0.564981 0.923494
vt 0.087903 0.215542
vt 0.680530 0.880486
vt 0.678927 0.912159
vt 0.433026 0.339984
vt 0.413009 0.248323
vt 0.428865 0.235374
vt 0.663104 0.617416
vt 0.616925 0.613454
vt 0.314756 0.619534
vt 0.066487 0.861206
vt 0.439118 0.250478
vt 0.073905 0.583106
vt 0.062306 0.804323
vt 0.439136 0.405016
vt 0.816513 0.519214
vt 0.064062 0.130124
vt 0.188986 0.343541
vt 0.689035 0.076374
vt 0.401592 0.365543
vt 0.095886 0.923044
vt 0.066003 0.919987
vt 0.386439 0.378363
vt 0.371672 0.407516
vt 0.380387 0.281190
vt 0.394833 0.357012
vt 0.848226 0.333369
vt 0.427982 0.473362
vt 0.676416 0.221485
vt 0.833926 0.420349
vt 0.816091 0.382390
vt 0.814872 0.503053
vt 0.818427 0.479710
vt 0.687238 0.479649
vt 0.688674 0.503048
vt 0.816603 0.417560
vt 0.684514 0.451666
vt 0.820794 0.451725
vt 0.438016 0.549811
vt 0.574151 0.076376
vt 0.072685 0.619832
vt 0.934485 0.270321
vt 0.921407 0.219565
vt 0.935507 0.223109
vt 0.933450 0.200206
vt 0.813648 0.184223
vt 0.674482 0.382670
vt 0.567279 0.113123
vt 0.818113 0.221290
vt 0.680665 0.417691
vt 0.686593 0.254012
vt 0.170691 0.873769
vt 0.183816 0.919325
vt 0.935397 0.617476
vt 0.936043 0.593282
vt 0.068573 0.089013
vt 0.435475 0.079225
vt 0.178540 0.809221
vt 0.183816 0.777104
vt 0.439136 0.132818
vn -0.8319 -0.0049 0.5549
vn -0.0314 0.0154 -0.9994
vn 0.0163 -0.0079 0.9998
vn 0.0078 -0.0029 -1.0000
vn 0.0036 0.0139 0.9999
vn -0.1069 -0.0786 -0.9912
vn -0.9876 -0.1548 -0.0278
vn -0.6207 -0.0192 0.7838
vn 0.0047 0.0007 -1.0000
vn 0.0008 -1.0000 -0.0045
vn -0.9703 0.0434 -0.2378
vn 0.9509 0.3088 0.0181
vn 0.9868 0.0227 0.1602
vn 0.8363 0.4846 0.2564
vn 0.7617 0.6297 -0.1527
vn 0.9996 0.0213 0.0205
vn 0.9982 -0.0011 -0.0606
vn 0.1293 0.1070 -0.9858
vn 1.0000 -0.0057 0.0066
vn -0.0309 -0.0312 -0.9990
vn -0.0115 -0.0103 0.9999
vn 0.0076 0.0017 1.0000
vn 0.9956 0.0932 -0.0045
vn 0.9937 0.0038 -0.1116
vn -0.9994 -0.0130 -0.0335
vn 0.0129 0.9999 0.0068
vn 0.0917 0.0793 -0.9926
vn 0.0687 0.0347 -0.9970
vn 0.0263 -0.0013 -0.9997
vn -0.9899 0.0196 -0.1402
vn 0.0701 0.0059 -0.9975
vn -0.0249 0.9983 0.0523
vn 0.1391 -0.0615 -0.9884
vn -0.0045 -1.0000 0.0048
vn -0.0261 0.9991 -0.0347
vn 0.0868 -0.0751 -0.9934
vn 0.9994 0.0147 -0.0307
vn 0.0083 0.0029 1.0000
vn -0.0174 0.0395 -0.9991
vn 0.0990 0.0013 -0.9951
vn -1.0000 -0.0047 0.0087
vn -0.1602 -0.0700 -0.9846
vn 0.9879 0.0038 0.1550
vn -0.9951 0.0097 -0.0984
vn -1.0000 -0.0059 0.0013
vn 0.9990 -0.0371 -0.0231
vn -0.0077 0.0089 -0.9999
vn 0.0040 0.0165 0.9999
vn -0.9999 -0.0099 0.0118
vn -0.9994 0.0304 0.0140
vn 0.0597 -0.0068 -0.9982
vn -0.2365 -0.0058 -0.9716
vn -0.9868 -0.0275 0.1599
vn 0.9982 0.0240 -0.0553
vn -1.0000 -0.0037 0.0091
vn 0.0010 0.0159 0.9999
vn -0.1994 -0.0628 -0.9779
vn 0.1048 0.0034 -0.9945
vn 0.0863 -0.0724 -0.9936
vn -0.9995 0.0118 -0.0303
vn 0.9988 0.0058 0.0486
vn 0.1933 -0.0679 -0.9788
vn -0.0240 -0.0076 -0.9997
vn 0.0012 -1.0000 -0.0015
vn -0.0884 0.0873 -0.9923
vn -0.0919 0.0502 -0.9945
vn 0.0014 -1.0000 0.0006
vn 0.9983 -0.0323 -0.0478
vn -0.9999 -0.0100 0.0079
vn 0.9890 0.0303 0.1446
vn -0.9080 0.4029 -0.1149
vn 0.2127 0.4191 -0.8827
vn 0.0076 0.0015 1.0000
vn -0.9999 -0.0084 0.0106
vn 0.9973 0.0059 -0.0729
vn 0.0018 -0.0052 -1.0000
vn -0.4451 0.8844 0.1407
vn 0.9974 0.0263 0.0664
vn -0.0011 -1.0000 0.0035
vn -0.1746 0.0443 -0.9836
vn -0.4388 -0.2263 -0.8696
vn -0.2489 0.9642 -0.0916
vn -0.0594 0.9974 0.0396
vn 0.6939 -0.0342 0.7193
vn -0.9999 -0.0017 0.0138
vn -0.9777 -0.0000 0.2100
vn -0.0541 0.0014 0.9985
vn -0.9986 -0.0334 -0.0410
vn -0.0255 0.0079 -0.9996
vn -0.9906 0.0785 0.1117
vn 0.1671 0.0400 -0.9851
vn 0.0951 0.0205 -0.9953
vn -0.1373 0.0421 -0.9896
vn -0.9711 -0.1001 -0.2169
vn 1.0000 -0.0095 -0.0014
vn 0.0332 -0.0335 -0.9989
vn -0.9999 0.0109 0.0048
vn 0.9934 0.0106 -0.1138
vn -0.2718 0.8058 -0.5262
vn -0.0371 0.9952 -0.0907
vn 0.0013 -1.0000 0.0005
vn -0.9999 0.0106 0.0027
vn -0.9999 0.0120 0.0055
vn 0.9946 0.0794 0.0670
vn 0.9968 0.0730 0.0339
vn 0.9300 -0.1243 0.3458
vn 0.9981 -0.0099 -0.0605
vn 0.0043 0.0188 0.9998
vn 0.9954 0.0072 -0.0960
vn 0.9829 -0.1838 -0.0094
vn 0.8610 0.0222 0.5081
vn 0.9986 0.0083 0.0514
vn 0.9020 0.0301 0.4307
vn -0.0694 -0.0191 0.9974
vn 0.9974 -0.0503 0.0511
vn -0.0089 0.0075 0.9999
vn 0.9907 -0.0973 0.0949
vn -0.9106 0.1429 0.3877
vn -0.4964 -0.1064 0.8615
vn -0.0367 -0.0871 0.9955
vn -0.9095 -0.2021 0.3633
vn -0.3825 -0.1891 0.9044
vn -0.9344 -0.1415 0.3271
vn -0.1159 -0.0293 0.9928
vn -0.4030 -0.0587 0.9133
vn -0.0584 -0.0109 0.9982
vn -0.9975 -0.0085 0.0701
vn -0.8546 0.0053 0.5192
vn -0.9999 -0.0094 -0.0043
vn 0.8618 -0.0590 0.5038
vn -0.9618 -0.2663 -0.0640
vn 0.7696 -0.0561 0.6360
vn 0.9975 -0.0026 0.0709
vn -0.3961 -0.1964 -0.8970
vn 0.6047 -0.0375 0.7955
vn -0.2129 -0.1402 0.9670
vn 0.4297 0.0333 0.9024
vn -0.5266 -0.1374 0.8389
vn -0.0695 -0.0218 0.9973
vn -0.9999 -0.0137 0.0006
vn -0.0696 -0.0218 0.9973
vn -0.0174 0.0320 0.9993
vn -0.7743 0.3171 0.5476
vn -0.8769 -0.2298 0.4222
vn -0.9668 -0.2547 0.0190
vn -0.1394 -0.0339 0.9897
vn 0.9999 0.0090 -0.0099
vn -0.8745 -0.3441 -0.3417
vn -0.0168 0.0238 -0.9996
vn -0.9438 -0.0435 -0.3275
vn -0.2995 0.0836 0.9504
vn 0.9113 0.1539 0.3818
vn -0.4711 0.0286 0.8816
vn -0.9776 0.1448 -0.1525
vn -0.5208 0.1529 0.8399
vn -0.9007 0.0760 0.4277
vn -0.9657 0.1166 0.2319
vn -0.0355 0.0045 -0.9994
vn 0.3337 0.0803 0.9393
vn 0.3093 -0.3203 0.8954
vn -0.9999 0.0037 0.0098
vn -0.6706 0.3384 0.6601
vn -0.9982 -0.0055 -0.0599
vn 0.9999 -0.0068 0.0076
vn 0.9888 -0.1034 0.1077
vn -0.1762 0.0660 0.9821
vn 0.8763 0.0470 -0.4795
vn 0.8116 -0.0921 -0.5770
vn 0.1263 0.9909 -0.0460
vn 0.5675 0.1742 0.8047
vn 0.9956 0.0225 0.0908
vn 0.1025 -0.0380 0.9940
vn 0.2457 0.2022 0.9480
vn -0.1109 0.1000 -0.9888
vn 0.9797 0.0411 -0.1963
vn 0.0321 0.9995 -0.0076
vn 0.7253 0.6829 -0.0873
vn 0.9997 -0.0208 0.0103
vn 0.9949 0.0328 0.0952
vn 0.9964 0.0082 -0.0839
vn 0.8317 0.5506 -0.0711
vn 0.9990 -0.0401 0.0192
vn 0.9899 -0.0286 -0.1390
vn -0.9794 -0.0345 0.1990
vn -0.9842 -0.0234 0.1757
vn 0.9979 0.0296 -0.0568
vn 0.9383 0.3383 -0.0713
vn 0.9998 -0.0008 0.0184
vn 0.0636 0.9977 0.0218
vn -0.0005 1.0000 0.0065
vn 0.9993 -0.0231 0.0297
vn 0.9967 0.0430 -0.0693
usemtl Material
s off
f 62/1/1 67/2/1 42/3/1
f 17/4/2 4/5/2 37/6/2
f 65/7/3 52/8/3 26/9/3
f 74/10/4 37/6/4 11/11/4
f 70/12/5 58/13/5 78/14/5
f 11/11/6 95/15/6 75/16/6
f 19/17/7 25/18/7 22/19/7
f 42/20/8 63/21/8 62/22/8
f 13/23/9 17/4/9 74/10/9
f 68/24/10 26/25/10 19/26/10
f 39/27/11 97/28/11 29/29/11
f 81/30/12 82/31/12 84/32/12
f 21/33/13 66/34/13 64/35/13
f 84/32/14 89/36/14 88/37/14
f 88/37/15 85/38/15 84/32/15
f 64/35/16 68/39/16 76/40/16
f 21/33/17 76/40/17 71/41/17
f 89/42/18 91/43/18 86/44/18
f 40/45/19 49/46/19 35/47/19
f 16/48/20 4/5/20 31/49/20
f 46/50/21 60/51/21 36/52/21
f 41/53/22 60/51/22 46/50/22
f 69/54/23 21/33/23 54/55/23
f 5/56/24 40/45/24 10/57/24
f 44/58/25 67/2/25 25/18/25
f 86/59/26 96/60/26 70/61/26
f 11/11/27 33/62/27 95/15/27
f 7/63/28 20/64/28 55/65/28
f 91/43/29 7/63/29 86/44/29
f 17/66/30 93/67/30 4/68/30
f 38/69/31 74/10/31 11/11/31
f 96/60/32 87/70/32 70/61/32
f 77/71/33 4/5/33 16/48/33
f 76/72/34 68/24/34 13/73/34
f 29/74/35 96/60/35 86/59/35
f 12/75/36 95/15/36 24/76/36
f 5/56/37 10/57/37 30/77/37
f 78/14/38 58/13/38 41/53/38
f 91/43/39 12/75/39 7/63/39
f 5/78/40 12/75/40 91/43/40
f 34/79/41 92/80/41 18/81/41
f 38/69/42 11/11/42 75/16/42
f 10/57/43 40/45/43 35/47/43
f 8/82/44 6/83/44 31/84/44
f 2/85/45 72/86/45 25/18/45
f 38/87/46 10/57/46 35/47/46
f 7/63/47 55/65/47 86/44/47
f 65/7/48 26/9/48 68/88/48
f 2/85/49 17/66/49 72/86/49
f 18/81/50 6/83/50 8/82/50
f 7/63/51 95/15/51 20/64/51
f 95/15/52 7/63/52 24/76/52
f 87/89/53 14/90/53 61/91/53
f 91/92/54 84/32/54 40/45/54
f 14/90/55 18/81/55 92/80/55
f 70/12/56 87/93/56 58/13/56
f 37/6/57 77/71/57 33/62/57
f 95/15/58 16/48/58 20/64/58
f 95/15/59 77/71/59 16/48/59
f 6/83/60 18/81/60 97/28/60
f 84/32/61 83/94/61 40/45/61
f 11/11/62 37/6/62 33/62/62
f 37/6/63 4/5/63 77/71/63
f 76/72/64 13/73/64 74/95/64
f 95/15/65 33/62/65 77/71/65
f 20/64/66 16/48/66 15/96/66
f 13/73/67 22/97/67 23/98/67
f 38/87/68 30/77/68 10/57/68
f 8/82/69 31/84/69 93/67/69
f 43/99/70 9/100/70 80/101/70
f 90/102/71 27/103/71 97/28/71
f 12/75/72 24/76/72 7/63/72
f 41/53/73 58/13/73 60/51/73
f 2/85/74 93/67/74 17/66/74
f 38/87/75 35/47/75 74/104/75
f 37/6/76 74/10/76 17/4/76
f 29/74/77 27/105/77 96/60/77
f 41/106/78 43/99/78 80/101/78
f 68/24/79 19/26/79 22/97/79
f 15/96/80 16/48/80 31/49/80
f 13/23/81 98/107/81 17/4/81
f 27/105/82 90/108/82 96/60/82
f 96/60/83 90/108/83 87/70/83
f 43/99/84 41/106/84 46/109/84
f 34/79/85 18/81/85 93/67/85
f 18/81/86 8/82/86 93/67/86
f 87/93/87 61/110/87 58/13/87
f 93/67/88 31/84/88 4/68/88
f 15/96/89 31/49/89 6/111/89
f 27/103/90 29/29/90 97/28/90
f 30/112/91 75/16/91 12/75/91
f 5/78/92 30/112/92 12/75/92
f 12/75/93 75/16/93 95/15/93
f 26/113/94 25/18/94 19/17/94
f 45/114/95 9/100/95 43/99/95
f 30/112/96 38/69/96 75/16/96
f 90/102/97 97/28/97 14/90/97
f 5/56/98 91/92/98 40/45/98
f 55/115/99 39/116/99 29/74/99
f 55/115/100 29/74/100 86/59/100
f 13/73/101 68/24/101 22/97/101
f 87/89/102 90/102/102 14/90/102
f 14/90/103 97/28/103 18/81/103
f 51/117/104 54/55/104 21/33/104
f 47/118/105 51/117/105 21/33/105
f 49/46/106 51/117/106 47/118/106
f 50/119/107 48/120/107 51/117/107
f 46/50/108 36/52/108 52/8/108
f 54/55/109 51/117/109 48/120/109
f 50/119/110 83/94/110 9/100/110
f 49/46/111 83/94/111 50/119/111
f 83/94/112 49/46/112 40/45/112
f 51/117/113 49/46/113 50/119/113
f 63/21/114 36/52/114 1/121/114
f 43/99/115 69/54/115 54/55/115
f 26/9/116 52/8/116 36/52/116
f 21/33/117 3/122/117 66/34/117
f 28/123/118 42/3/118 67/2/118
f 1/121/119 32/124/119 57/125/119
f 58/13/120 73/126/120 94/127/120
f 94/128/121 73/129/121 92/80/121
f 57/125/122 32/124/122 56/130/122
f 59/131/123 94/128/123 92/80/123
f 60/51/124 58/13/124 94/127/124
f 59/132/125 56/130/125 32/124/125
f 61/110/126 73/126/126 58/13/126
f 14/90/127 92/80/127 73/129/127
f 62/1/128 34/79/128 67/2/128
f 67/2/129 2/85/129 25/18/129
f 66/34/130 65/133/130 64/35/130
f 22/19/131 72/86/131 23/134/131
f 69/54/132 43/99/132 46/109/132
f 21/33/133 64/35/133 76/40/133
f 23/135/134 98/107/134 13/23/134
f 69/136/135 53/137/135 3/138/135
f 60/51/136 94/127/136 59/132/136
f 65/7/137 66/139/137 53/137/137
f 1/121/138 57/125/138 62/22/138
f 1/121/139 36/52/139 60/51/139
f 67/2/140 93/67/140 2/85/140
f 60/51/141 32/124/141 1/121/141
f 63/21/142 44/140/142 26/9/142
f 28/123/143 67/2/143 44/58/143
f 34/79/144 62/1/144 57/141/144
f 22/19/145 25/18/145 72/86/145
f 65/7/146 53/137/146 52/8/146
f 71/41/147 76/40/147 74/104/147
f 72/86/148 17/66/148 98/142/148
f 6/111/149 55/65/149 20/64/149
f 72/86/150 98/142/150 23/134/150
f 26/9/151 36/52/151 63/21/151
f 68/39/152 64/35/152 65/133/152
f 1/121/153 62/22/153 63/21/153
f 39/27/154 6/83/154 97/28/154
f 28/143/155 63/21/155 42/20/155
f 56/144/156 59/131/156 92/80/156
f 61/91/157 14/90/157 73/129/157
f 6/111/158 20/64/158 15/96/158
f 69/136/159 52/8/159 53/137/159
f 69/136/160 46/50/160 52/8/160
f 93/67/161 67/2/161 34/79/161
f 44/58/162 63/145/162 28/123/162
f 44/58/163 25/18/163 26/113/163
f 35/47/164 71/41/164 74/104/164
f 47/118/165 35/47/165 49/46/165
f 60/51/166 59/132/166 32/124/166
f 45/114/167 48/120/167 9/100/167
f 54/55/168 48/120/168 45/114/168
f 88/146/169 89/147/169 86/59/169
f 66/139/170 3/138/170 53/137/170
f 69/54/171 3/122/171 21/33/171
f 79/148/172 70/12/172 82/149/172
f 82/149/173 70/12/173 78/14/173
f 39/150/174 55/65/174 6/111/174
f 81/30/175 79/151/175 82/31/175
f 81/152/176 70/61/176 79/153/176
f 85/38/177 88/37/177 81/30/177
f 80/101/178 78/154/178 41/106/178
f 35/47/179 47/118/179 71/41/179
f 21/33/180 71/41/180 47/118/180
f 85/38/181 81/30/181 84/32/181
f 54/55/182 45/114/182 43/99/182
f 9/100/183 48/120/183 50/119/183
f 57/141/184 56/144/184 34/79/184
f 34/79/185 56/144/185 92/80/185
f 84/32/186 91/92/186 89/36/186
f 83/94/187 80/101/187 9/100/187
f 84/32/188 82/31/188 83/94/188
f 81/152/189 88/146/189 70/61/189
f 88/146/190 86/59/190 70/61/190
f 80/101/191 83/94/191 78/154/191
f 83/94/192 82/31/192 78/154/192
